<?xml version="1.0" encoding="utf-8"?>
<!-- Generator: Adobe Illustrator 23.0.5, SVG Export Plug-In . SVG Version: 6.00 Build 0)  -->
<svg version="1.1" id="Layer_1" xmlns="http://www.w3.org/2000/svg" xmlns:xlink="http://www.w3.org/1999/xlink" x="0px" y="0px"
	 viewBox="0 0 448 512" style="enable-background:new 0 0 448 512;" xml:space="preserve">
<style type="text/css">
	.st0{fill:#4B4A59;}
	.st1{fill:#FFB612;}
</style>
<g>
	<path class="st0" d="M448,256c0-123.7-100.3-224-224-224S0,132.3,0,256c0,111.8,81.9,204.5,189,221.3V320.7h-56.9V256H189v-49.4
		c0-56.1,33.4-87.1,84.6-87.1c24.5,0,50.1,4.4,50.1,4.4V179h-28.2c-27.8,0-36.5,17.3-36.5,35v42h62.1l-9.9,64.7H259v156.5
		C366.1,460.5,448,367.8,448,256z"/>
	<path class="st1" d="M311.2,320.7l9.9-64.7H259v-42c0-17.7,8.7-35,36.5-35h28.2v-55.1c0,0-25.6-4.4-50.1-4.4
		c-51.2,0-84.6,31-84.6,87.1V256h-56.9v64.7H189v156.5c11.4,1.8,23.1,2.7,35,2.7s23.6-0.9,35-2.7V320.7H311.2z"/>
</g>
</svg>
