<?xml version="1.0" encoding="utf-8"?>
<!-- Generator: Adobe Illustrator 23.0.5, SVG Export Plug-In . SVG Version: 6.00 Build 0)  -->
<svg version="1.1" id="Layer_1" xmlns="http://www.w3.org/2000/svg" xmlns:xlink="http://www.w3.org/1999/xlink" x="0px" y="0px"
	 viewBox="0 0 448 512" style="enable-background:new 0 0 448 512;" xml:space="preserve">
<style type="text/css">
	.st0{fill:#4B4A59;}
	.st1{fill:#FFB612;}
</style>
<g>
	<circle class="st0" cx="224" cy="256" r="224"/>
	<g>
		<g>
			<path class="st1" d="M224,140.4c37.7,0,42.1,0.1,57,0.8c13.8,0.6,21.2,2.9,26.2,4.9c6.6,2.6,11.3,5.6,16.2,10.6
				c4.9,4.9,8,9.6,10.6,16.2c1.9,5,4.2,12.4,4.9,26.2c0.7,14.9,0.8,19.3,0.8,57s-0.1,42.1-0.8,57c-0.6,13.8-2.9,21.2-4.9,26.2
				c-2.6,6.6-5.6,11.3-10.6,16.2c-4.9,4.9-9.6,8-16.2,10.6c-5,1.9-12.4,4.2-26.2,4.9c-14.9,0.7-19.3,0.8-57,0.8
				c-37.7,0-42.1-0.1-57-0.8c-13.8-0.6-21.2-2.9-26.2-4.9c-6.6-2.6-11.3-5.6-16.2-10.6c-4.9-4.9-8-9.6-10.6-16.2
				c-1.9-5-4.2-12.4-4.9-26.2c-0.7-14.9-0.8-19.3-0.8-57s0.1-42.1,0.8-57c0.6-13.8,2.9-21.2,4.9-26.2c2.6-6.6,5.6-11.3,10.6-16.2
				c4.9-4.9,9.6-8,16.2-10.6c5-1.9,12.4-4.2,26.2-4.9C181.9,140.5,186.3,140.4,224,140.4 M224,115c-38.3,0-43.1,0.2-58.1,0.8
				c-15,0.7-25.3,3.1-34.2,6.6c-9.3,3.6-17.1,8.4-25,16.3c-7.8,7.8-12.7,15.7-16.3,25c-3.5,9-5.9,19.2-6.6,34.2
				c-0.7,15-0.8,19.8-0.8,58.1c0,38.3,0.2,43.1,0.8,58.1c0.7,15,3.1,25.3,6.6,34.2c3.6,9.3,8.4,17.1,16.3,25
				c7.8,7.8,15.7,12.7,25,16.3c9,3.5,19.2,5.9,34.2,6.6c15,0.7,19.8,0.8,58.1,0.8c38.3,0,43.1-0.2,58.1-0.8
				c15-0.7,25.3-3.1,34.2-6.6c9.3-3.6,17.1-8.4,25-16.3c7.8-7.8,12.7-15.7,16.3-25c3.5-9,5.9-19.2,6.6-34.2
				c0.7-15,0.8-19.8,0.8-58.1s-0.2-43.1-0.8-58.1c-0.7-15-3.1-25.3-6.6-34.2c-3.6-9.3-8.4-17.1-16.3-25c-7.8-7.8-15.7-12.7-25-16.3
				c-9-3.5-19.2-5.9-34.2-6.6C267.1,115.1,262.3,115,224,115L224,115z"/>
			<path class="st1" d="M224,183.6c-40,0-72.4,32.4-72.4,72.4s32.4,72.4,72.4,72.4c40,0,72.4-32.4,72.4-72.4S264,183.6,224,183.6z
				 M224,303c-26,0-47-21-47-47s21-47,47-47s47,21,47,47S250,303,224,303z"/>
			<circle class="st1" cx="299.3" cy="180.7" r="16.9"/>
		</g>
	</g>
</g>
<g>
	<path class="st0" d="M-942.8,129.4c0-37.3-30.2-67.5-67.5-67.5s-67.5,30.2-67.5,67.5c0,33.7,24.7,61.6,57,66.7V149h-17.1v-19.5
		h17.1v-14.9c0-16.9,10.1-26.3,25.5-26.3c7.4,0,15.1,1.3,15.1,1.3v16.6h-8.5c-8.4,0-11,5.2-11,10.5v12.7h18.7l-3,19.5h-15.7v47.2
		C-967.5,191.1-942.8,163.1-942.8,129.4z"/>
	<path class="st1" d="M-984.1,149l3-19.5h-18.7v-12.7c0-5.3,2.6-10.5,11-10.5h8.5V89.6c0,0-7.7-1.3-15.1-1.3
		c-15.4,0-25.5,9.3-25.5,26.3v14.9h-17.1V149h17.1v47.2c3.4,0.5,7,0.8,10.5,0.8s7.1-0.3,10.5-0.8V149H-984.1z"/>
</g>
<g>
	<path class="st1" d="M-1017.8,357.3c2.2,4.2,8.6,7.8,15.5,7.8c20.4,0,35-18.7,35-42c0-22.4-18.2-39-41.6-39
		c-29.2,0-44.6,19.6-44.6,40.9c0,10,5.3,22.2,13.7,26.2c1.3,0.6,2,0.3,2.3-0.9c0.2-0.9,1.4-5.6,1.9-7.7c0.2-0.7,0.1-1.3-0.4-1.9
		c-2.8-3.4-5-9.6-5-15.4c0-14.9,11.3-29.3,30.5-29.3c16.6,0,28.2,11.3,28.2,27.5c0,18.2-9.2,30.9-21.2,30.9c-6.6,0-11.6-5.5-10-12.2
		c1.9-8.1,5.6-16.7,5.6-22.5c0-5.2-2.8-9.5-8.6-9.5c-6.8,0-12.2,7-12.2,16.4c0,5.9,2,10,2,10s-6.7,28.3-7.9,33.6
		c-1.3,5.8-0.8,14.1-0.2,19.4l4.5,1.7c2.8-4.5,6.9-11.8,8.4-17.7C-1021.2,370.2-1017.8,357.3-1017.8,357.3z"/>
	<path class="st0" d="M-980.5,265.8c-9-4.4-19.1-6.9-29.8-6.9c-10.7,0-20.8,2.5-29.8,6.9c-22.4,11-37.7,34-37.7,60.6
		c0,28.6,17.8,53.1,42.9,62.9c-0.6-5.3-1.1-13.6,0.2-19.4c1.2-5.3,7.9-33.6,7.9-33.6s-2-4.1-2-10c0-9.4,5.4-16.4,12.2-16.4
		c5.8,0,8.6,4.3,8.6,9.5c0,5.8-3.7,14.5-5.6,22.5c-1.6,6.7,3.4,12.2,10,12.2c12,0,21.2-12.7,21.2-30.9c0-16.2-11.6-27.5-28.2-27.5
		c-19.2,0-30.5,14.4-30.5,29.3c0,5.8,2.2,12,5,15.4c0.6,0.7,0.6,1.3,0.4,1.9c-0.5,2.1-1.7,6.7-1.9,7.7c-0.3,1.2-1,1.5-2.3,0.9
		c-8.5-3.9-13.7-16.2-13.7-26.2c0-21.3,15.5-40.9,44.6-40.9c23.4,0,41.6,16.7,41.6,39c0,23.3-14.7,42-35,42
		c-6.8,0-13.3-3.6-15.5-7.8c0,0-3.4,12.9-4.2,16.1c-1.5,5.9-5.6,13.2-8.4,17.7c6.3,1.9,13,3,20,3c37.3,0,67.6-30.2,67.6-67.6
		C-942.8,299.8-958.1,276.8-980.5,265.8z"/>
</g>
</svg>
