<?xml version="1.0" encoding="utf-8"?>
<!-- Generator: Adobe Illustrator 23.0.5, SVG Export Plug-In . SVG Version: 6.00 Build 0)  -->
<svg version="1.1" id="Layer_1" xmlns="http://www.w3.org/2000/svg" xmlns:xlink="http://www.w3.org/1999/xlink" x="0px" y="0px"
	 viewBox="0 0 448 512" style="enable-background:new 0 0 448 512;" xml:space="preserve">
<style type="text/css">
	.st0{fill:#4B4A59;}
	.st1{fill:#FFB612;}
</style>
<g>
	<path class="st0" d="M-942.8,129.4c0-37.3-30.2-67.5-67.5-67.5s-67.5,30.2-67.5,67.5c0,33.7,24.7,61.6,57,66.7V149h-17.1v-19.5
		h17.1v-14.9c0-16.9,10.1-26.3,25.5-26.3c7.4,0,15.1,1.3,15.1,1.3v16.6h-8.5c-8.4,0-11,5.2-11,10.5v12.7h18.7l-3,19.5h-15.7v47.2
		C-967.5,191.1-942.8,163.1-942.8,129.4z"/>
	<path class="st1" d="M-984.1,149l3-19.5h-18.7v-12.7c0-5.3,2.6-10.5,11-10.5h8.5V89.6c0,0-7.7-1.3-15.1-1.3
		c-15.4,0-25.5,9.3-25.5,26.3v14.9h-17.1V149h17.1v47.2c3.4,0.5,7,0.8,10.5,0.8s7.1-0.3,10.5-0.8V149H-984.1z"/>
</g>
<g>
	<path class="st1" d="M199.3,358.2c7.2,14,28.6,25.8,51.3,25.8c67.5,0,116.2-62.2,116.2-139.5c0-74.2-60.5-129.5-138.2-129.5
		C131.7,115,80.4,180,80.4,250.6c0,33,17.5,73.8,45.6,86.9c4.2,2,6.6,1.1,7.6-3c0.7-3.1,4.6-18.5,6.3-25.5c0.6-2.2,0.4-4.2-1.5-6.5
		c-9.2-11.3-16.6-31.9-16.6-51.1c0-49.4,37.5-97.2,101.3-97.2c55.2,0,93.7,37.5,93.7,91.1c0,60.5-30.6,102.6-70.5,102.6
		c-22,0-38.6-18.3-33.2-40.6c6.5-26.8,18.6-55.5,18.6-74.7c0-17.2-9.2-31.6-28.4-31.6c-22.5,0-40.6,23.2-40.6,54.4
		c0,19.7,6.6,33.2,6.6,33.2s-22.1,93.9-26.2,111.4c-4.4,19.4-2.8,46.7-0.7,64.4l14.9,5.7c9.2-14.9,22.9-39.3,27.9-58.9
		C188,401,199.3,358.2,199.3,358.2z"/>
	<path class="st0" d="M323.1,54.6c-29.8-14.7-63.4-23-98.9-23c-35.5,0-69.1,8.3-98.9,23C51.1,91.2,0,167.5,0,255.8
		c0,95,59,176.2,142.4,208.9c-2-17.7-3.7-45,0.7-64.4c4.1-17.5,26.2-111.4,26.2-111.4s-6.6-13.5-6.6-33.2
		c0-31.2,18.1-54.4,40.6-54.4c19.2,0,28.4,14.4,28.4,31.6c0,19.2-12.2,48-18.6,74.7c-5.4,22.3,11.3,40.6,33.2,40.6
		c39.9,0,70.5-42.1,70.5-102.6c0-53.7-38.6-91.1-93.7-91.1c-63.8,0-101.3,47.8-101.3,97.2c0,19.2,7.4,39.9,16.6,51.1
		c1.8,2.2,2,4.2,1.5,6.5c-1.7,7-5.5,22.3-6.3,25.5c-0.9,4.1-3.3,5-7.6,3c-28-13.1-45.6-53.9-45.6-86.9C80.4,180,131.7,115,228.6,115
		c77.7,0,138.2,55.4,138.2,129.5c0,77.3-48.7,139.5-116.2,139.5c-22.7,0-44.1-11.8-51.3-25.8c0,0-11.3,42.8-14,53.3
		c-5,19.6-18.6,43.9-27.9,58.9c21,6.5,43.2,10,66.4,10C347.6,480.4,448,380,448,256.2C448.3,167.6,397.3,91.2,323.1,54.6z"/>
</g>
</svg>
