<?xml version="1.0" encoding="utf-8"?>
<!-- Generator: Adobe Illustrator 23.0.5, SVG Export Plug-In . SVG Version: 6.00 Build 0)  -->
<svg version="1.1" id="Layer_1" xmlns="http://www.w3.org/2000/svg" xmlns:xlink="http://www.w3.org/1999/xlink" x="0px" y="0px"
	 viewBox="0 0 448 512" style="enable-background:new 0 0 448 512;" xml:space="preserve">
<style type="text/css">
	.st0{fill:#4B4A59;}
	.st1{fill:#FFB612;}
	.st2{fill-rule:evenodd;clip-rule:evenodd;fill:#4B4A59;}
</style>
<g>
	<circle class="st0" cx="-562" cy="129.4" r="67.5"/>
	<g>
		<g>
			<path class="st1" d="M-562,94.6c11.3,0,12.7,0,17.2,0.2c4.1,0.2,6.4,0.9,7.9,1.5c2,0.8,3.4,1.7,4.9,3.2c1.5,1.5,2.4,2.9,3.2,4.9
				c0.6,1.5,1.3,3.7,1.5,7.9c0.2,4.5,0.2,5.8,0.2,17.2c0,11.3,0,12.7-0.2,17.2c-0.2,4.1-0.9,6.4-1.5,7.9c-0.8,2-1.7,3.4-3.2,4.9
				c-1.5,1.5-2.9,2.4-4.9,3.2c-1.5,0.6-3.7,1.3-7.9,1.5c-4.5,0.2-5.8,0.2-17.2,0.2c-11.3,0-12.7,0-17.2-0.2
				c-4.1-0.2-6.4-0.9-7.9-1.5c-2-0.8-3.4-1.7-4.9-3.2c-1.5-1.5-2.4-2.9-3.2-4.9c-0.6-1.5-1.3-3.7-1.5-7.9c-0.2-4.5-0.2-5.8-0.2-17.2
				c0-11.3,0-12.7,0.2-17.2c0.2-4.1,0.9-6.4,1.5-7.9c0.8-2,1.7-3.4,3.2-4.9c1.5-1.5,2.9-2.4,4.9-3.2c1.5-0.6,3.7-1.3,7.9-1.5
				C-574.7,94.6-573.3,94.6-562,94.6 M-562,86.9c-11.5,0-13,0-17.5,0.3c-4.5,0.2-7.6,0.9-10.3,2c-2.8,1.1-5.2,2.5-7.5,4.9
				c-2.4,2.4-3.8,4.7-4.9,7.5c-1.1,2.7-1.8,5.8-2,10.3c-0.2,4.5-0.3,6-0.3,17.5c0,11.5,0,13,0.3,17.5c0.2,4.5,0.9,7.6,2,10.3
				c1.1,2.8,2.5,5.2,4.9,7.5c2.4,2.4,4.7,3.8,7.5,4.9c2.7,1.1,5.8,1.8,10.3,2c4.5,0.2,6,0.3,17.5,0.3s13,0,17.5-0.3
				c4.5-0.2,7.6-0.9,10.3-2c2.8-1.1,5.2-2.5,7.5-4.9c2.4-2.4,3.8-4.7,4.9-7.5c1.1-2.7,1.8-5.8,2-10.3c0.2-4.5,0.3-6,0.3-17.5
				s0-13-0.3-17.5c-0.2-4.5-0.9-7.6-2-10.3c-1.1-2.8-2.5-5.2-4.9-7.5c-2.4-2.4-4.7-3.8-7.5-4.9c-2.7-1.1-5.8-1.8-10.3-2
				C-549,87-550.5,86.9-562,86.9L-562,86.9z"/>
			<path class="st1" d="M-562,107.6c-12.1,0-21.8,9.8-21.8,21.8c0,12.1,9.8,21.8,21.8,21.8c12.1,0,21.8-9.8,21.8-21.8
				C-540.2,117.4-549.9,107.6-562,107.6z M-562,143.6c-7.8,0-14.2-6.3-14.2-14.2c0-7.8,6.3-14.2,14.2-14.2s14.2,6.3,14.2,14.2
				C-547.8,137.3-554.2,143.6-562,143.6z"/>
			<circle class="st1" cx="-539.3" cy="106.8" r="5.1"/>
		</g>
	</g>
</g>
<g>
	<circle class="st2" cx="224" cy="256" r="224"/>
	<g>
		<g>
			<g>
				<path class="st1" d="M178.7,385C288.1,385,348,294.4,348,215.8c0-2.6-0.1-5.1-0.2-7.7c11.6-8.4,21.7-18.9,29.7-30.8
					c-10.7,4.7-22.1,7.9-34.2,9.4c12.3-7.4,21.7-19,26.2-32.9c-11.5,6.8-24.2,11.8-37.8,14.4c-10.9-11.6-26.3-18.8-43.4-18.8
					c-32.9,0-59.5,26.6-59.5,59.5c0,4.7,0.5,9.2,1.5,13.6c-49.4-2.5-93.3-26.2-122.6-62.1c-5.1,8.8-8.1,19-8.1,29.9
					c0,20.6,10.5,38.9,26.5,49.5c-9.8-0.3-18.9-3-26.9-7.4c0,0.2,0,0.5,0,0.8c0,28.8,20.5,52.9,47.7,58.3c-5,1.4-10.3,2.1-15.7,2.1
					c-3.8,0-7.6-0.4-11.2-1.1c7.6,23.6,29.5,40.8,55.6,41.3c-20.4,16-46,25.5-73.9,25.5c-4.8,0-9.5-0.3-14.2-0.8
					C113.9,375.2,145.1,385,178.7,385"/>
			</g>
		</g>
	</g>
</g>
<g>
	<path class="st0" d="M-942.8,129.4c0-37.3-30.2-67.5-67.5-67.5s-67.5,30.2-67.5,67.5c0,33.7,24.7,61.6,57,66.7V149h-17.1v-19.5
		h17.1v-14.9c0-16.9,10.1-26.3,25.5-26.3c7.4,0,15.1,1.3,15.1,1.3v16.6h-8.5c-8.4,0-11,5.2-11,10.5v12.7h18.7l-3,19.5h-15.7v47.2
		C-967.5,191.1-942.8,163.1-942.8,129.4z"/>
	<path class="st1" d="M-984.1,149l3-19.5h-18.7v-12.7c0-5.3,2.6-10.5,11-10.5h8.5V89.6c0,0-7.7-1.3-15.1-1.3
		c-15.4,0-25.5,9.3-25.5,26.3v14.9h-17.1V149h17.1v47.2c3.4,0.5,7,0.8,10.5,0.8s7.1-0.3,10.5-0.8V149H-984.1z"/>
</g>
<g>
	<path class="st1" d="M-1017.8,357.3c2.2,4.2,8.6,7.8,15.5,7.8c20.4,0,35-18.7,35-42c0-22.4-18.2-39-41.6-39
		c-29.2,0-44.6,19.6-44.6,40.9c0,10,5.3,22.2,13.7,26.2c1.3,0.6,2,0.3,2.3-0.9c0.2-0.9,1.4-5.6,1.9-7.7c0.2-0.7,0.1-1.3-0.4-1.9
		c-2.8-3.4-5-9.6-5-15.4c0-14.9,11.3-29.3,30.5-29.3c16.6,0,28.2,11.3,28.2,27.5c0,18.2-9.2,30.9-21.2,30.9c-6.6,0-11.6-5.5-10-12.2
		c1.9-8.1,5.6-16.7,5.6-22.5c0-5.2-2.8-9.5-8.6-9.5c-6.8,0-12.2,7-12.2,16.4c0,5.9,2,10,2,10s-6.7,28.3-7.9,33.6
		c-1.3,5.8-0.8,14.1-0.2,19.4l4.5,1.7c2.8-4.5,6.9-11.8,8.4-17.7C-1021.2,370.2-1017.8,357.3-1017.8,357.3z"/>
	<path class="st0" d="M-980.5,265.8c-9-4.4-19.1-6.9-29.8-6.9c-10.7,0-20.8,2.5-29.8,6.9c-22.4,11-37.7,34-37.7,60.6
		c0,28.6,17.8,53.1,42.9,62.9c-0.6-5.3-1.1-13.6,0.2-19.4c1.2-5.3,7.9-33.6,7.9-33.6s-2-4.1-2-10c0-9.4,5.4-16.4,12.2-16.4
		c5.8,0,8.6,4.3,8.6,9.5c0,5.8-3.7,14.5-5.6,22.5c-1.6,6.7,3.4,12.2,10,12.2c12,0,21.2-12.7,21.2-30.9c0-16.2-11.6-27.5-28.2-27.5
		c-19.2,0-30.5,14.4-30.5,29.3c0,5.8,2.2,12,5,15.4c0.6,0.7,0.6,1.3,0.4,1.9c-0.5,2.1-1.7,6.7-1.9,7.7c-0.3,1.2-1,1.5-2.3,0.9
		c-8.5-3.9-13.7-16.2-13.7-26.2c0-21.3,15.5-40.9,44.6-40.9c23.4,0,41.6,16.7,41.6,39c0,23.3-14.7,42-35,42
		c-6.8,0-13.3-3.6-15.5-7.8c0,0-3.4,12.9-4.2,16.1c-1.5,5.9-5.6,13.2-8.4,17.7c6.3,1.9,13,3,20,3c37.3,0,67.6-30.2,67.6-67.6
		C-942.8,299.8-958.1,276.8-980.5,265.8z"/>
</g>
</svg>
