<?xml version="1.0" encoding="utf-8"?>
<!-- Generator: Adobe Illustrator 23.0.5, SVG Export Plug-In . SVG Version: 6.00 Build 0)  -->
<svg version="1.1" id="Layer_1" xmlns="http://www.w3.org/2000/svg" xmlns:xlink="http://www.w3.org/1999/xlink" x="0px" y="0px"
	 viewBox="0 0 448 512" style="enable-background:new 0 0 448 512;" xml:space="preserve">
<style type="text/css">
	.st0{fill:none;stroke:#FFB917;stroke-width:28;stroke-linecap:round;stroke-miterlimit:10;}
	.st1{fill:#FFB917;}
</style>
<text transform="matrix(1 0 0 1 -587 -120.1102)"><tspan x="0" y="0" style="font-family:'MyriadPro-Regular'; font-size:12px;">A freelancer who provides </tspan><tspan x="0" y="14.4" style="font-family:'MyriadPro-Regular'; font-size:12px;">services for digital programming </tspan><tspan x="0" y="28.8" style="font-family:'MyriadPro-Regular'; font-size:12px;">and design content needs, for</tspan><tspan x="0" y="43.2" style="font-family:'MyriadPro-Regular'; font-size:12px;">all businesses with more than </tspan><tspan x="0" y="57.6" style="font-family:'MyriadPro-Regular'; font-size:12px;">10 years of experience</tspan></text>
<g>
	<g>
		<line class="st0" x1="15.8" y1="256" x2="412.6" y2="256"/>
		<g>
			<path class="st1" d="M221.2,390.4c-4.2-6.5-2.2-15.2,4.3-19.3L406.2,256L225.5,140.9c-6.5-4.2-8.4-12.8-4.3-19.3
				c4.2-6.5,12.9-8.4,19.3-4.3l199.2,126.9c4,2.6,6.5,7,6.5,11.8s-2.4,9.2-6.5,11.8L240.5,394.7c-2.3,1.5-4.9,2.2-7.5,2.2
				C228.4,396.9,223.9,394.6,221.2,390.4z"/>
		</g>
	</g>
</g>
</svg>
