<?xml version="1.0" encoding="utf-8"?>
<!-- Generator: Adobe Illustrator 23.0.5, SVG Export Plug-In . SVG Version: 6.00 Build 0)  -->
<svg version="1.1" id="Layer_1" xmlns="http://www.w3.org/2000/svg" xmlns:xlink="http://www.w3.org/1999/xlink" x="0px" y="0px"
	 viewBox="0 0 512 512" style="enable-background:new 0 0 512 512;" xml:space="preserve">
<style type="text/css">
	.st0{fill:#FFB917;}
</style>
<path class="st0" d="M256,512c141.4,0,256-114.6,256-256S397.4,0,256,0S0,114.6,0,256S114.6,512,256,512z M96.8,314.1
	c-3.8-13.7,7.4-26.1,21.6-26.1h275.2c14.2,0,25.5,12.4,21.6,26.1C396.2,382,332.1,432,256,432S115.8,382,96.8,314.1z M144.4,192
	c0-17.7,14.3-32,32-32s32,14.3,32,32s-14.3,32-32,32S144.4,209.7,144.4,192z M336.4,160c17.7,0,32,14.3,32,32s-14.3,32-32,32
	s-32-14.3-32-32S318.7,160,336.4,160z"/>
</svg>
