<?xml version="1.0" encoding="utf-8"?>
<!-- Generator: Adobe Illustrator 23.0.5, SVG Export Plug-In . SVG Version: 6.00 Build 0)  -->
<svg version="1.1" id="Layer_1" xmlns="http://www.w3.org/2000/svg" xmlns:xlink="http://www.w3.org/1999/xlink" x="0px" y="0px"
	 viewBox="0 0 1000 1000" style="enable-background:new 0 0 1000 1000;" xml:space="preserve">
<style type="text/css">
	.st0{fill:#FFFFFF;}
</style>
<g>
	<path class="st0" d="M990,500c0-259.8-204-472.9-460.6-488.2c-5.3-0.6-10.7-0.9-16.1-0.9c-1.6,0-3.2,0-4.7,0.1
		c-2.9-0.1-5.8-0.1-8.6-0.1C229.8,11,10,230.3,10,500s219.8,489,490,489c2.9,0,5.8,0,8.6-0.1c1.6,0,3.2,0.1,4.7,0.1
		c5.4,0,10.7-0.3,16.1-0.9C786,972.9,990,759.8,990,500z M898.9,657.5c-16.8-4.9-59.1-15.5-133.8-24.3c6.2-42.2,9.5-86.8,9.5-133.2
		c0-36.5-2-72-5.9-106c94.6-11.3,135.9-25.5,138.7-26.5l-11.6-32.8C917.1,385.6,929,441.4,929,500
		C929,555.6,918.3,608.7,898.9,657.5z M283.6,500c0-34.2,2.2-67.6,6.4-99.7c49.6,3.9,108.9,6.8,178.5,7.4v212.1
		c-67.8,0.7-125.8,3.4-174.5,7.1C287.3,586.7,283.6,544,283.6,500z M529.5,76c75,21.7,139.1,125.9,167.9,263.8
		c-46.2,3.7-101.8,6.4-167.9,7V76z M468.5,76.9v269.9c-65.3-0.7-121.2-3.3-168.2-6.9C329.6,203.7,394.4,100.4,468.5,76.9z
		 M468.5,680.7v242.4c-69.2-21.9-130.1-113.2-161.8-235.9C352.4,683.8,406.2,681.4,468.5,680.7z M529.5,924V680.7
		c63,0.6,116.6,3.1,161.7,6.6C660.1,811.6,599.5,903.7,529.5,924z M529.5,619.8v-212c70-0.7,129-3.6,177.9-7.6
		c4,32.2,6.1,65.6,6.1,99.9c0,44-3.5,86.8-10,127.1C655.4,623.3,597.7,620.5,529.5,619.8z M884.8,310.8c-9.2,2.9-47.9,13.8-125.2,23
		c-17.2-91.7-48.5-170.1-89-226.6C763.8,147.6,839.9,220.2,884.8,310.8z M353.5,97.5c-49.8,57.3-90.5,139.6-112.7,236.9
		c-69.1-7.5-110.6-16.3-127.3-20.3C162,214.3,248.2,135.9,353.5,97.5z M90.8,371.2c11.8,3.2,56.3,14.3,139,23.4
		c-4.7,33.8-7.3,69.1-7.3,105.4c0,46.1,4.1,90.5,11.6,132.5c-71.1,7.7-114.8,16.9-134.4,21.6C81.2,606.2,71,554.3,71,500
		C71,455.1,78,411.9,90.8,371.2z M126.5,710.5c22.2-4.7,62-11.9,121-18.1c23.2,85.6,60.8,158.2,106,210.1
		C257,867.4,176.6,798.6,126.5,710.5z M670.6,892.8c36.5-50.9,65.5-119.5,83.5-199.6c60.7,7,98.7,15.1,117.9,20
		C826,792.6,755.4,856,670.6,892.8z"/>
</g>
</svg>
